<mxfile host="65bd71144e">
    <diagram id="cH2UCdoTQd7DaGI1TDF5" name="Page-1">
        <mxGraphModel dx="878" dy="733" grid="1" gridSize="10" guides="1" tooltips="1" connect="1" arrows="1" fold="1" page="1" pageScale="1" pageWidth="850" pageHeight="1100" background="#ffffff" math="0" shadow="0">
            <root>
                <mxCell id="0"/>
                <mxCell id="1" parent="0"/>
                <mxCell id="5" value="User Clicks 'Buy a Ticket'" style="edgeStyle=none;html=1;fontColor=#000000;strokeColor=#000000;labelBackgroundColor=#F0F0F0;" parent="1" source="2" target="4" edge="1">
                    <mxGeometry relative="1" as="geometry"/>
                </mxCell>
                <mxCell id="2" value="" style="ellipse;fillColor=#000000;strokeColor=none;" parent="1" vertex="1">
                    <mxGeometry x="270" y="50" width="30" height="30" as="geometry"/>
                </mxCell>
                <mxCell id="7" value="User Makes&amp;nbsp; a 'Movie' Selection" style="edgeStyle=none;html=1;labelBackgroundColor=#F0F0F0;fontColor=#000000;strokeColor=#000000;" parent="1" source="4" target="6" edge="1">
                    <mxGeometry relative="1" as="geometry"/>
                </mxCell>
                <mxCell id="4" value="Empty" style="rounded=1;whiteSpace=wrap;html=1;fillColor=#F0F0F0;strokeColor=#000000;fontColor=#000000;" parent="1" vertex="1">
                    <mxGeometry x="225" y="145" width="120" height="60" as="geometry"/>
                </mxCell>
                <mxCell id="9" value="User Makes a 'Theatre' Selection" style="edgeStyle=none;html=1;labelBackgroundColor=#F0F0F0;fontColor=#000000;strokeColor=#000000;" parent="1" source="6" target="8" edge="1">
                    <mxGeometry relative="1" as="geometry"/>
                </mxCell>
                <mxCell id="31" value="User Cancels Ticket" style="edgeStyle=orthogonalEdgeStyle;html=1;labelBackgroundColor=#F0F0F0;fontColor=#000000;strokeColor=#000000;entryX=0;entryY=0.5;entryDx=0;entryDy=0;" parent="1" source="6" target="26" edge="1">
                    <mxGeometry relative="1" as="geometry">
                        <mxPoint x="425" y="315" as="targetPoint"/>
                    </mxGeometry>
                </mxCell>
                <mxCell id="6" value="Pending with Movie" style="rounded=1;whiteSpace=wrap;html=1;fillColor=#F0F0F0;strokeColor=#000000;fontColor=#000000;" parent="1" vertex="1">
                    <mxGeometry x="225" y="285" width="120" height="60" as="geometry"/>
                </mxCell>
                <mxCell id="11" value="User Makes a 'Showtime' Selection" style="edgeStyle=none;html=1;labelBackgroundColor=#F0F0F0;fontColor=#000000;strokeColor=#000000;" parent="1" source="8" target="10" edge="1">
                    <mxGeometry relative="1" as="geometry"/>
                </mxCell>
                <mxCell id="29" value="User Cancels Ticket" style="edgeStyle=orthogonalEdgeStyle;html=1;labelBackgroundColor=#F0F0F0;fontColor=#000000;strokeColor=#000000;entryX=0.5;entryY=1;entryDx=0;entryDy=0;" parent="1" source="8" target="26" edge="1">
                    <mxGeometry x="-0.3226" relative="1" as="geometry">
                        <mxPoint x="550" y="350" as="targetPoint"/>
                        <mxPoint as="offset"/>
                    </mxGeometry>
                </mxCell>
                <mxCell id="8" value="Pending with Movie and Theatre" style="rounded=1;whiteSpace=wrap;html=1;fillColor=#F0F0F0;strokeColor=#000000;fontColor=#000000;" parent="1" vertex="1">
                    <mxGeometry x="225" y="425" width="120" height="60" as="geometry"/>
                </mxCell>
                <mxCell id="13" value="User Makes a 'Seat' Selection" style="edgeStyle=none;html=1;labelBackgroundColor=#F0F0F0;fontColor=#000000;strokeColor=#000000;" parent="1" source="10" target="12" edge="1">
                    <mxGeometry relative="1" as="geometry"/>
                </mxCell>
                <mxCell id="23" value="User Goes Back to&lt;br&gt;Showtime Selection" style="edgeStyle=orthogonalEdgeStyle;html=1;labelBackgroundColor=#F0F0F0;fontColor=#000000;strokeColor=#000000;entryX=0;entryY=0.75;entryDx=0;entryDy=0;" parent="1" source="10" target="8" edge="1">
                    <mxGeometry relative="1" as="geometry">
                        <mxPoint x="145" y="595" as="targetPoint"/>
                        <Array as="points">
                            <mxPoint x="130" y="595"/>
                            <mxPoint x="130" y="470"/>
                        </Array>
                    </mxGeometry>
                </mxCell>
                <mxCell id="27" value="User Cancels Ticket" style="edgeStyle=orthogonalEdgeStyle;html=1;labelBackgroundColor=#F0F0F0;fontColor=#000000;strokeColor=#000000;entryX=0.5;entryY=1;entryDx=0;entryDy=0;" parent="1" source="10" target="26" edge="1">
                    <mxGeometry x="-0.5385" y="5" relative="1" as="geometry">
                        <mxPoint x="550" y="340" as="targetPoint"/>
                        <mxPoint as="offset"/>
                    </mxGeometry>
                </mxCell>
                <mxCell id="10" value="Pending with Movie, Theatre, and Showtime" style="rounded=1;whiteSpace=wrap;html=1;fillColor=#F0F0F0;strokeColor=#000000;fontColor=#000000;" parent="1" vertex="1">
                    <mxGeometry x="225" y="565" width="120" height="60" as="geometry"/>
                </mxCell>
                <mxCell id="15" value="User Confirms Ticket" style="edgeStyle=none;html=1;labelBackgroundColor=#F0F0F0;fontColor=#000000;strokeColor=#000000;" parent="1" source="12" target="14" edge="1">
                    <mxGeometry relative="1" as="geometry"/>
                </mxCell>
                <mxCell id="12" value="Ticket Details Complete" style="rounded=1;whiteSpace=wrap;html=1;fillColor=#F0F0F0;strokeColor=#000000;fontColor=#000000;" parent="1" vertex="1">
                    <mxGeometry x="225" y="705" width="120" height="60" as="geometry"/>
                </mxCell>
                <mxCell id="17" value="Ticket Email Requires" style="edgeStyle=none;html=1;labelBackgroundColor=#F0F0F0;fontColor=#000000;strokeColor=#000000;" parent="1" source="14" target="16" edge="1">
                    <mxGeometry relative="1" as="geometry"/>
                </mxCell>
                <mxCell id="14" value="Ticket Pending Payment" style="rounded=1;whiteSpace=wrap;html=1;fillColor=#F0F0F0;strokeColor=#000000;fontColor=#000000;" parent="1" vertex="1">
                    <mxGeometry x="706" y="705" width="120" height="60" as="geometry"/>
                </mxCell>
                <mxCell id="19" value="Ticket Storage Requiest" style="edgeStyle=none;html=1;labelBackgroundColor=#F0F0F0;fontColor=#000000;strokeColor=#000000;" parent="1" source="16" target="18" edge="1">
                    <mxGeometry relative="1" as="geometry"/>
                </mxCell>
                <mxCell id="16" value="Ticket to Email Service" style="rounded=1;whiteSpace=wrap;html=1;fillColor=#F0F0F0;strokeColor=#000000;fontColor=#000000;" parent="1" vertex="1">
                    <mxGeometry x="706" y="565" width="120" height="60" as="geometry"/>
                </mxCell>
                <mxCell id="21" value="" style="edgeStyle=none;html=1;labelBackgroundColor=#F0F0F0;fontColor=#000000;strokeColor=#000000;" parent="1" source="18" target="20" edge="1">
                    <mxGeometry relative="1" as="geometry"/>
                </mxCell>
                <mxCell id="18" value="Ticket Saved to Database" style="rounded=1;whiteSpace=wrap;html=1;fillColor=#F0F0F0;strokeColor=#000000;fontColor=#000000;" parent="1" vertex="1">
                    <mxGeometry x="706" y="425" width="120" height="60" as="geometry"/>
                </mxCell>
                <mxCell id="20" value="" style="ellipse;html=1;shape=endState;fillColor=#000000;strokeColor=#000000;fontColor=#000000;" parent="1" vertex="1">
                    <mxGeometry x="751" y="300" width="30" height="30" as="geometry"/>
                </mxCell>
                <mxCell id="24" value="Uses Goes Back to&amp;nbsp;&lt;br&gt;Theatre Seleciton" style="edgeStyle=orthogonalEdgeStyle;html=1;labelBackgroundColor=#F0F0F0;fontColor=#000000;strokeColor=#000000;entryX=0;entryY=0.75;entryDx=0;entryDy=0;" parent="1" target="6" edge="1">
                    <mxGeometry relative="1" as="geometry">
                        <mxPoint x="225" y="440" as="sourcePoint"/>
                        <mxPoint x="225" y="300" as="targetPoint"/>
                        <Array as="points">
                            <mxPoint x="130" y="440"/>
                            <mxPoint x="130" y="330"/>
                        </Array>
                    </mxGeometry>
                </mxCell>
                <mxCell id="25" value="User Goes Back to &lt;br&gt;Movie Selection" style="edgeStyle=orthogonalEdgeStyle;html=1;labelBackgroundColor=#F0F0F0;fontColor=#000000;strokeColor=#000000;entryX=0;entryY=0.75;entryDx=0;entryDy=0;" parent="1" edge="1">
                    <mxGeometry relative="1" as="geometry">
                        <mxPoint x="225" y="300" as="sourcePoint"/>
                        <mxPoint x="225" y="190" as="targetPoint"/>
                        <Array as="points">
                            <mxPoint x="130" y="300"/>
                            <mxPoint x="130" y="190"/>
                        </Array>
                    </mxGeometry>
                </mxCell>
                <mxCell id="34" value="" style="edgeStyle=orthogonalEdgeStyle;html=1;labelBackgroundColor=#F0F0F0;fontColor=#000000;strokeColor=#000000;entryX=0;entryY=0.5;entryDx=0;entryDy=0;" parent="1" source="26" target="20" edge="1">
                    <mxGeometry relative="1" as="geometry">
                        <mxPoint x="690" y="315" as="targetPoint"/>
                    </mxGeometry>
                </mxCell>
                <mxCell id="26" value="Ticket Cancelled" style="rounded=1;whiteSpace=wrap;html=1;fillColor=#F0F0F0;strokeColor=#000000;fontColor=#000000;" parent="1" vertex="1">
                    <mxGeometry x="490" y="285" width="120" height="60" as="geometry"/>
                </mxCell>
                <mxCell id="38" value="Payment Process Unsuccessful" style="edgeStyle=orthogonalEdgeStyle;html=1;labelBackgroundColor=#F0F0F0;fontColor=#000000;strokeColor=#000000;exitX=1;exitY=0.5;exitDx=0;exitDy=0;entryX=0.5;entryY=0;entryDx=0;entryDy=0;" parent="1" source="14" target="26" edge="1">
                    <mxGeometry x="-0.8198" y="-5" relative="1" as="geometry">
                        <mxPoint x="830" y="734" as="sourcePoint"/>
                        <mxPoint x="1187" y="734.1700000000002" as="targetPoint"/>
                        <Array as="points">
                            <mxPoint x="920" y="735"/>
                            <mxPoint x="920" y="220"/>
                            <mxPoint x="550" y="220"/>
                        </Array>
                        <mxPoint x="-5" y="6" as="offset"/>
                    </mxGeometry>
                </mxCell>
                <mxCell id="39" value="&lt;font color=&quot;#000000&quot;&gt;Created By: Derek Walz&lt;/font&gt;" style="text;html=1;align=center;verticalAlign=middle;resizable=0;points=[];autosize=1;strokeColor=none;fillColor=none;" vertex="1" parent="1">
                    <mxGeometry x="781" y="830" width="140" height="20" as="geometry"/>
                </mxCell>
            </root>
        </mxGraphModel>
    </diagram>
</mxfile>